<svg xmlns="http://www.w3.org/2000/svg" width="700" height="400" viewBox="0 0 700 400">
  <defs>
    <linearGradient id="bg4" x1="0" y1="0" x2="1" y2="1"><stop offset="0%" stop-color="#8B5CF6"/><stop offset="100%" stop-color="#6D28D9"/></linearGradient>
  </defs>
  <rect width="700" height="400" fill="url(#bg4)"/>
  <g opacity="0.1"><circle cx="350" cy="200" r="250" fill="white"/></g>
  <!-- Automation workflow -->
  <g transform="translate(130,100)">
    <!-- Step 1: Order -->
    <rect x="0" y="30" width="100" height="70" rx="10" fill="white" opacity="0.95"/>
    <text x="50" y="55" font-family="system-ui,sans-serif" font-size="24" text-anchor="middle">🛒</text>
    <text x="50" y="82" font-family="system-ui,sans-serif" font-size="10" fill="#6D28D9" text-anchor="middle" font-weight="600">PEDIDO</text>
    <!-- Arrow -->
    <line x1="105" y1="65" x2="155" y2="65" stroke="white" stroke-width="3" opacity="0.7"/>
    <polygon points="155,58 170,65 155,72" fill="white" opacity="0.7"/>
    <!-- Step 2: Auto -->
    <rect x="175" y="20" width="100" height="90" rx="10" fill="white" opacity="0.95"/>
    <text x="225" y="52" font-family="system-ui,sans-serif" font-size="28" text-anchor="middle">⚡</text>
    <text x="225" y="75" font-family="system-ui,sans-serif" font-size="10" fill="#6D28D9" text-anchor="middle" font-weight="600">AUTO</text>
    <text x="225" y="92" font-family="system-ui,sans-serif" font-size="9" fill="#A78BFA" text-anchor="middle">10 seg</text>
    <!-- Arrow -->
    <line x1="280" y1="65" x2="330" y2="65" stroke="white" stroke-width="3" opacity="0.7"/>
    <polygon points="330,58 345,65 330,72" fill="white" opacity="0.7"/>
    <!-- Step 3: Shipped -->
    <rect x="350" y="30" width="100" height="70" rx="10" fill="white" opacity="0.95"/>
    <text x="400" y="55" font-family="system-ui,sans-serif" font-size="24" text-anchor="middle">📦</text>
    <text x="400" y="82" font-family="system-ui,sans-serif" font-size="10" fill="#6D28D9" text-anchor="middle" font-weight="600">ENVIADO</text>
  </g>
  <!-- Dotted circle around auto -->
  <circle cx="355" cy="165" r="65" fill="none" stroke="white" stroke-width="2" stroke-dasharray="8 4" opacity="0.3"/>
  <text x="350" y="300" font-family="system-ui,sans-serif" font-size="22" fill="white" text-anchor="middle" font-weight="700" opacity="0.95">Automatiza tus envíos</text>
  <text x="350" y="328" font-family="system-ui,sans-serif" font-size="15" fill="white" text-anchor="middle" opacity="0.7">De 5 minutos a 10 segundos por pedido</text>
</svg>