<svg xmlns="http://www.w3.org/2000/svg" width="700" height="400" viewBox="0 0 700 400">
  <defs>
    <linearGradient id="bg5" x1="0" y1="0" x2="1" y2="1"><stop offset="0%" stop-color="#EC4899"/><stop offset="100%" stop-color="#BE185D"/></linearGradient>
  </defs>
  <rect width="700" height="400" fill="url(#bg5)"/>
  <g opacity="0.1"><circle cx="200" cy="300" r="200" fill="white"/><circle cx="500" cy="100" r="150" fill="white"/></g>
  <!-- Shipping label -->
  <g transform="translate(220,50)">
    <rect x="0" y="0" width="260" height="200" rx="12" fill="white" opacity="0.95"/>
    <!-- Header bar -->
    <rect x="0" y="0" width="260" height="35" rx="12" fill="#0F172A" opacity="0.9"/>
    <rect x="210" y="35" width="50" height="0" rx="0" fill="#0F172A"/>
    <text x="20" y="24" font-family="system-ui,sans-serif" font-size="14" fill="white" font-weight="700">MRW</text>
    <text x="240" y="24" font-family="system-ui,sans-serif" font-size="10" fill="#94A3B8" text-anchor="end">URGENTE</text>
    <!-- Content -->
    <text x="20" y="60" font-family="system-ui,sans-serif" font-size="9" fill="#94A3B8">DESTINATARIO</text>
    <text x="20" y="78" font-family="system-ui,sans-serif" font-size="12" fill="#0F172A" font-weight="600">Juan García López</text>
    <text x="20" y="95" font-family="system-ui,sans-serif" font-size="10" fill="#64748B">C/ Gran Vía 45, 2ºB</text>
    <text x="20" y="110" font-family="system-ui,sans-serif" font-size="10" fill="#64748B">28013 Madrid</text>
    <!-- Barcode-like -->
    <g transform="translate(20,125)">
      <rect x="0" y="0" width="3" height="40" fill="#0F172A"/><rect x="5" y="0" width="2" height="40" fill="#0F172A"/>
      <rect x="9" y="0" width="4" height="40" fill="#0F172A"/><rect x="16" y="0" width="2" height="40" fill="#0F172A"/>
      <rect x="20" y="0" width="3" height="40" fill="#0F172A"/><rect x="26" y="0" width="1" height="40" fill="#0F172A"/>
      <rect x="30" y="0" width="4" height="40" fill="#0F172A"/><rect x="36" y="0" width="2" height="40" fill="#0F172A"/>
      <rect x="41" y="0" width="3" height="40" fill="#0F172A"/><rect x="47" y="0" width="1" height="40" fill="#0F172A"/>
      <rect x="51" y="0" width="4" height="40" fill="#0F172A"/><rect x="58" y="0" width="2" height="40" fill="#0F172A"/>
      <rect x="63" y="0" width="3" height="40" fill="#0F172A"/><rect x="69" y="0" width="2" height="40" fill="#0F172A"/>
      <rect x="74" y="0" width="4" height="40" fill="#0F172A"/><rect x="81" y="0" width="1" height="40" fill="#0F172A"/>
      <rect x="85" y="0" width="3" height="40" fill="#0F172A"/><rect x="91" y="0" width="2" height="40" fill="#0F172A"/>
      <rect x="96" y="0" width="4" height="40" fill="#0F172A"/>
    </g>
    <text x="20" y="180" font-family="monospace" font-size="10" fill="#64748B">0662 7845 3210 9876</text>
    <!-- Printer icon -->
    <g transform="translate(170,120)" opacity="0.5">
      <rect x="0" y="15" width="60" height="35" rx="5" fill="#E2E8F0"/>
      <rect x="10" y="5" width="40" height="15" rx="3" fill="#CBD5E1"/>
      <rect x="15" y="45" width="30" height="20" rx="2" fill="white" stroke="#CBD5E1" stroke-width="1"/>
    </g>
  </g>
  <text x="350" y="300" font-family="system-ui,sans-serif" font-size="22" fill="white" text-anchor="middle" font-weight="700" opacity="0.95">Etiquetas de envío</text>
  <text x="350" y="328" font-family="system-ui,sans-serif" font-size="15" fill="white" text-anchor="middle" opacity="0.7">MRW · Correos · DHL</text>
</svg>