<svg xmlns="http://www.w3.org/2000/svg" width="700" height="400" viewBox="0 0 700 400">
  <defs>
    <linearGradient id="bg2" x1="0" y1="0" x2="1" y2="1"><stop offset="0%" stop-color="#F59E0B"/><stop offset="100%" stop-color="#EF4444"/></linearGradient>
  </defs>
  <rect width="700" height="400" fill="url(#bg2)"/>
  <g opacity="0.1"><circle cx="150" cy="200" r="200" fill="white"/><circle cx="550" cy="200" r="200" fill="white"/></g>
  <!-- Left shield (PRO) -->
  <g transform="translate(200,80)">
    <path d="M0,30 L50,0 L100,30 L100,120 L50,150 L0,120Z" fill="white" opacity="0.95"/>
    <text x="50" y="85" font-family="system-ui,sans-serif" font-size="16" fill="#059669" text-anchor="middle" font-weight="800">PRO</text>
    <text x="50" y="110" font-family="system-ui,sans-serif" font-size="24" fill="#059669" text-anchor="middle">★★★★★</text>
  </g>
  <!-- VS circle -->
  <g transform="translate(315,130)">
    <circle cx="35" cy="35" r="35" fill="white" opacity="0.95"/>
    <text x="35" y="44" font-family="system-ui,sans-serif" font-size="28" fill="#EF4444" text-anchor="middle" font-weight="900">VS</text>
  </g>
  <!-- Right shield (Official) -->
  <g transform="translate(400,80)">
    <path d="M0,30 L50,0 L100,30 L100,120 L50,150 L0,120Z" fill="white" opacity="0.6"/>
    <text x="50" y="80" font-family="system-ui,sans-serif" font-size="12" fill="#DC2626" text-anchor="middle" font-weight="600">OFICIAL</text>
    <text x="50" y="110" font-family="system-ui,sans-serif" font-size="24" fill="#DC2626" text-anchor="middle">★☆☆☆☆</text>
  </g>
  <text x="350" y="300" font-family="system-ui,sans-serif" font-size="22" fill="white" text-anchor="middle" font-weight="700" opacity="0.95">Comparativa completa</text>
  <text x="350" y="328" font-family="system-ui,sans-serif" font-size="15" fill="white" text-anchor="middle" opacity="0.7">MRW Pro vs módulo oficial</text>
</svg>