<svg xmlns="http://www.w3.org/2000/svg" width="700" height="400" viewBox="0 0 700 400">
  <defs>
    <linearGradient id="bg3" x1="0" y1="0" x2="1" y2="1"><stop offset="0%" stop-color="#10B981"/><stop offset="100%" stop-color="#059669"/></linearGradient>
  </defs>
  <rect width="700" height="400" fill="url(#bg3)"/>
  <g opacity="0.1"><rect x="100" y="50" width="500" height="300" rx="20" fill="white"/></g>
  <!-- Document / invoice -->
  <g transform="translate(250,50)">
    <rect x="0" y="0" width="200" height="250" rx="12" fill="white" opacity="0.95"/>
    <rect x="20" y="20" width="100" height="14" rx="3" fill="#10B981" opacity="0.3"/>
    <rect x="20" y="44" width="160" height="8" rx="2" fill="#CBD5E1"/>
    <rect x="20" y="60" width="140" height="8" rx="2" fill="#CBD5E1"/>
    <rect x="20" y="76" width="150" height="8" rx="2" fill="#CBD5E1"/>
    <line x1="20" y1="100" x2="180" y2="100" stroke="#E2E8F0" stroke-width="2"/>
    <text x="20" y="125" font-family="system-ui,sans-serif" font-size="11" fill="#64748B">IVA 21%</text>
    <text x="160" y="125" font-family="system-ui,sans-serif" font-size="11" fill="#0F172A" text-anchor="end" font-weight="600">€42,00</text>
    <text x="20" y="148" font-family="system-ui,sans-serif" font-size="11" fill="#059669" font-weight="700">RE 5,2%</text>
    <text x="160" y="148" font-family="system-ui,sans-serif" font-size="11" fill="#059669" text-anchor="end" font-weight="600">€10,40</text>
    <line x1="20" y1="165" x2="180" y2="165" stroke="#E2E8F0" stroke-width="2"/>
    <text x="20" y="190" font-family="system-ui,sans-serif" font-size="13" fill="#0F172A" font-weight="700">TOTAL</text>
    <text x="160" y="190" font-family="system-ui,sans-serif" font-size="13" fill="#0F172A" text-anchor="end" font-weight="700">€252,40</text>
    <!-- Stamp -->
    <g transform="translate(110,180) rotate(-15)">
      <rect x="0" y="0" width="70" height="30" rx="4" fill="none" stroke="#10B981" stroke-width="3" opacity="0.6"/>
      <text x="35" y="22" font-family="system-ui,sans-serif" font-size="12" fill="#10B981" text-anchor="middle" font-weight="800" opacity="0.6">R.E.</text>
    </g>
  </g>
  <text x="350" y="340" font-family="system-ui,sans-serif" font-size="22" fill="white" text-anchor="middle" font-weight="700" opacity="0.95">Recargo de Equivalencia</text>
  <text x="350" y="368" font-family="system-ui,sans-serif" font-size="15" fill="white" text-anchor="middle" opacity="0.7">Guía completa para Shopify</text>
</svg>