<svg xmlns="http://www.w3.org/2000/svg" width="700" height="400" viewBox="0 0 700 400">
  <defs>
    <linearGradient id="bg1" x1="0" y1="0" x2="1" y2="1"><stop offset="0%" stop-color="#3B82F6"/><stop offset="100%" stop-color="#6366F1"/></linearGradient>
  </defs>
  <rect width="700" height="400" fill="url(#bg1)"/>
  <g opacity="0.15"><circle cx="600" cy="80" r="120" fill="white"/><circle cx="120" cy="350" r="80" fill="white"/></g>
  <!-- Boxes -->
  <g transform="translate(180,120)">
    <rect x="0" y="20" width="80" height="70" rx="6" fill="white" opacity="0.95"/>
    <polygon points="0,20 40,-5 80,20" fill="white" opacity="0.8"/>
    <rect x="30" y="45" width="20" height="25" rx="2" fill="#3B82F6" opacity="0.6"/>
  </g>
  <g transform="translate(310,100)">
    <rect x="0" y="20" width="90" height="80" rx="6" fill="white" opacity="0.95"/>
    <polygon points="0,20 45,-10 90,20" fill="white" opacity="0.8"/>
    <rect x="25" y="50" width="16" height="16" rx="2" fill="#6366F1" opacity="0.6"/>
    <rect x="47" y="50" width="16" height="16" rx="2" fill="#6366F1" opacity="0.6"/>
    <rect x="25" y="72" width="16" height="16" rx="2" fill="#6366F1" opacity="0.4"/>
    <rect x="47" y="72" width="16" height="16" rx="2" fill="#6366F1" opacity="0.4"/>
  </g>
  <g transform="translate(460,130)">
    <rect x="0" y="20" width="70" height="60" rx="6" fill="white" opacity="0.95"/>
    <polygon points="0,20 35,-5 70,20" fill="white" opacity="0.8"/>
    <line x1="15" y1="45" x2="55" y2="45" stroke="#6366F1" stroke-width="3" opacity="0.5"/>
    <line x1="15" y1="55" x2="45" y2="55" stroke="#6366F1" stroke-width="3" opacity="0.3"/>
  </g>
  <!-- Truck -->
  <g transform="translate(250,240)" opacity="0.9">
    <rect x="0" y="10" width="80" height="45" rx="5" fill="white"/>
    <rect x="80" y="20" width="40" height="35" rx="3" fill="rgba(255,255,255,0.85)"/>
    <circle cx="25" cy="60" r="10" fill="white" stroke="#3B82F6" stroke-width="3"/>
    <circle cx="95" cy="60" r="10" fill="white" stroke="#3B82F6" stroke-width="3"/>
    <rect x="85" y="25" width="15" height="12" rx="2" fill="#93C5FD"/>
  </g>
  <!-- Stars -->
  <g fill="white" opacity="0.6">
    <polygon points="550,200 553,210 563,210 555,216 558,226 550,220 542,226 545,216 537,210 547,210" transform="scale(0.8)"/>
    <polygon points="150,80 153,90 163,90 155,96 158,106 150,100 142,106 145,96 137,90 147,90" transform="scale(0.6)"/>
  </g>
  <text x="350" y="350" font-family="system-ui,-apple-system,sans-serif" font-size="22" fill="white" text-anchor="middle" font-weight="700" opacity="0.95">Las 5 mejores apps de envío</text>
  <text x="350" y="378" font-family="system-ui,-apple-system,sans-serif" font-size="15" fill="white" text-anchor="middle" opacity="0.7">Shopify España · 2026</text>
</svg>